%TF.GenerationSoftware,KiCad,Pcbnew,(5.1.9-0-10_14)*%
%TF.CreationDate,2021-01-17T14:25:06+01:00*%
%TF.ProjectId,SYZYGY-PMOD4,53595a59-4759-42d5-904d-4f44342e6b69,rev?*%
%TF.SameCoordinates,Original*%
%TF.FileFunction,Legend,Bot*%
%TF.FilePolarity,Positive*%
%FSLAX46Y46*%
G04 Gerber Fmt 4.6, Leading zero omitted, Abs format (unit mm)*
G04 Created by KiCad (PCBNEW (5.1.9-0-10_14)) date 2021-01-17 14:25:06*
%MOMM*%
%LPD*%
G01*
G04 APERTURE LIST*
%ADD10C,0.150000*%
%ADD11C,0.254000*%
G04 APERTURE END LIST*
D10*
X154619047Y-64452380D02*
X154619047Y-65166666D01*
X154666666Y-65309523D01*
X154761904Y-65404761D01*
X154904761Y-65452380D01*
X155000000Y-65452380D01*
X153666666Y-65452380D02*
X154142857Y-65452380D01*
X154142857Y-64452380D01*
X152761904Y-65357142D02*
X152809523Y-65404761D01*
X152952380Y-65452380D01*
X153047619Y-65452380D01*
X153190476Y-65404761D01*
X153285714Y-65309523D01*
X153333333Y-65214285D01*
X153380952Y-65023809D01*
X153380952Y-64880952D01*
X153333333Y-64690476D01*
X153285714Y-64595238D01*
X153190476Y-64500000D01*
X153047619Y-64452380D01*
X152952380Y-64452380D01*
X152809523Y-64500000D01*
X152761904Y-64547619D01*
X152047619Y-64452380D02*
X152047619Y-65166666D01*
X152095238Y-65309523D01*
X152190476Y-65404761D01*
X152333333Y-65452380D01*
X152428571Y-65452380D01*
X151095238Y-65452380D02*
X151571428Y-65452380D01*
X151571428Y-64452380D01*
X150190476Y-65357142D02*
X150238095Y-65404761D01*
X150380952Y-65452380D01*
X150476190Y-65452380D01*
X150619047Y-65404761D01*
X150714285Y-65309523D01*
X150761904Y-65214285D01*
X150809523Y-65023809D01*
X150809523Y-64880952D01*
X150761904Y-64690476D01*
X150714285Y-64595238D01*
X150619047Y-64500000D01*
X150476190Y-64452380D01*
X150380952Y-64452380D01*
X150238095Y-64500000D01*
X150190476Y-64547619D01*
X149476190Y-64452380D02*
X149476190Y-65166666D01*
X149523809Y-65309523D01*
X149619047Y-65404761D01*
X149761904Y-65452380D01*
X149857142Y-65452380D01*
X148523809Y-65452380D02*
X149000000Y-65452380D01*
X149000000Y-64452380D01*
X147619047Y-65357142D02*
X147666666Y-65404761D01*
X147809523Y-65452380D01*
X147904761Y-65452380D01*
X148047619Y-65404761D01*
X148142857Y-65309523D01*
X148190476Y-65214285D01*
X148238095Y-65023809D01*
X148238095Y-64880952D01*
X148190476Y-64690476D01*
X148142857Y-64595238D01*
X148047619Y-64500000D01*
X147904761Y-64452380D01*
X147809523Y-64452380D01*
X147666666Y-64500000D01*
X147619047Y-64547619D01*
X146904761Y-64452380D02*
X146904761Y-65166666D01*
X146952380Y-65309523D01*
X147047619Y-65404761D01*
X147190476Y-65452380D01*
X147285714Y-65452380D01*
X145952380Y-65452380D02*
X146428571Y-65452380D01*
X146428571Y-64452380D01*
X145047619Y-65357142D02*
X145095238Y-65404761D01*
X145238095Y-65452380D01*
X145333333Y-65452380D01*
X145476190Y-65404761D01*
X145571428Y-65309523D01*
X145619047Y-65214285D01*
X145666666Y-65023809D01*
X145666666Y-64880952D01*
X145619047Y-64690476D01*
X145571428Y-64595238D01*
X145476190Y-64500000D01*
X145333333Y-64452380D01*
X145238095Y-64452380D01*
X145095238Y-64500000D01*
X145047619Y-64547619D01*
D11*
%TO.C,J5*%
X139500000Y-63636000D02*
X139500000Y-70064000D01*
X141200000Y-61936000D02*
X139500000Y-63636000D01*
X158800000Y-61936000D02*
X141200000Y-61936000D01*
X160500000Y-63636000D02*
X158800000Y-61936000D01*
X160500000Y-70064000D02*
X160500000Y-63636000D01*
X139500000Y-70064000D02*
X160500000Y-70064000D01*
D10*
X150333333Y-70452380D02*
X150333333Y-71166666D01*
X150380952Y-71309523D01*
X150476190Y-71404761D01*
X150619047Y-71452380D01*
X150714285Y-71452380D01*
X149380952Y-70452380D02*
X149857142Y-70452380D01*
X149904761Y-70928571D01*
X149857142Y-70880952D01*
X149761904Y-70833333D01*
X149523809Y-70833333D01*
X149428571Y-70880952D01*
X149380952Y-70928571D01*
X149333333Y-71023809D01*
X149333333Y-71261904D01*
X149380952Y-71357142D01*
X149428571Y-71404761D01*
X149523809Y-71452380D01*
X149761904Y-71452380D01*
X149857142Y-71404761D01*
X149904761Y-71357142D01*
%TD*%
M02*
