%TF.GenerationSoftware,KiCad,Pcbnew,(5.1.9-0-10_14)*%
%TF.CreationDate,2021-01-17T14:25:06+01:00*%
%TF.ProjectId,SYZYGY-PMOD4,53595a59-4759-42d5-904d-4f44342e6b69,rev?*%
%TF.SameCoordinates,Original*%
%TF.FileFunction,Legend,Top*%
%TF.FilePolarity,Positive*%
%FSLAX46Y46*%
G04 Gerber Fmt 4.6, Leading zero omitted, Abs format (unit mm)*
G04 Created by KiCad (PCBNEW (5.1.9-0-10_14)) date 2021-01-17 14:25:06*
%MOMM*%
%LPD*%
G01*
G04 APERTURE LIST*
%ADD10C,0.150000*%
%ADD11C,0.120000*%
G04 APERTURE END LIST*
D10*
X141785714Y-63754761D02*
X141928571Y-63802380D01*
X142166666Y-63802380D01*
X142261904Y-63754761D01*
X142309523Y-63707142D01*
X142357142Y-63611904D01*
X142357142Y-63516666D01*
X142309523Y-63421428D01*
X142261904Y-63373809D01*
X142166666Y-63326190D01*
X141976190Y-63278571D01*
X141880952Y-63230952D01*
X141833333Y-63183333D01*
X141785714Y-63088095D01*
X141785714Y-62992857D01*
X141833333Y-62897619D01*
X141880952Y-62850000D01*
X141976190Y-62802380D01*
X142214285Y-62802380D01*
X142357142Y-62850000D01*
X142976190Y-63326190D02*
X142976190Y-63802380D01*
X142642857Y-62802380D02*
X142976190Y-63326190D01*
X143309523Y-62802380D01*
X143547619Y-62802380D02*
X144214285Y-62802380D01*
X143547619Y-63802380D01*
X144214285Y-63802380D01*
X144785714Y-63326190D02*
X144785714Y-63802380D01*
X144452380Y-62802380D02*
X144785714Y-63326190D01*
X145119047Y-62802380D01*
X145976190Y-62850000D02*
X145880952Y-62802380D01*
X145738095Y-62802380D01*
X145595238Y-62850000D01*
X145500000Y-62945238D01*
X145452380Y-63040476D01*
X145404761Y-63230952D01*
X145404761Y-63373809D01*
X145452380Y-63564285D01*
X145500000Y-63659523D01*
X145595238Y-63754761D01*
X145738095Y-63802380D01*
X145833333Y-63802380D01*
X145976190Y-63754761D01*
X146023809Y-63707142D01*
X146023809Y-63373809D01*
X145833333Y-63373809D01*
X146642857Y-63326190D02*
X146642857Y-63802380D01*
X146309523Y-62802380D02*
X146642857Y-63326190D01*
X146976190Y-62802380D01*
X148071428Y-63802380D02*
X148071428Y-62802380D01*
X148452380Y-62802380D01*
X148547619Y-62850000D01*
X148595238Y-62897619D01*
X148642857Y-62992857D01*
X148642857Y-63135714D01*
X148595238Y-63230952D01*
X148547619Y-63278571D01*
X148452380Y-63326190D01*
X148071428Y-63326190D01*
X149071428Y-63802380D02*
X149071428Y-62802380D01*
X149404761Y-63516666D01*
X149738095Y-62802380D01*
X149738095Y-63802380D01*
X150404761Y-62802380D02*
X150595238Y-62802380D01*
X150690476Y-62850000D01*
X150785714Y-62945238D01*
X150833333Y-63135714D01*
X150833333Y-63469047D01*
X150785714Y-63659523D01*
X150690476Y-63754761D01*
X150595238Y-63802380D01*
X150404761Y-63802380D01*
X150309523Y-63754761D01*
X150214285Y-63659523D01*
X150166666Y-63469047D01*
X150166666Y-63135714D01*
X150214285Y-62945238D01*
X150309523Y-62850000D01*
X150404761Y-62802380D01*
X151261904Y-63802380D02*
X151261904Y-62802380D01*
X151500000Y-62802380D01*
X151642857Y-62850000D01*
X151738095Y-62945238D01*
X151785714Y-63040476D01*
X151833333Y-63230952D01*
X151833333Y-63373809D01*
X151785714Y-63564285D01*
X151738095Y-63659523D01*
X151642857Y-63754761D01*
X151500000Y-63802380D01*
X151261904Y-63802380D01*
X152976190Y-63516666D02*
X153452380Y-63516666D01*
X152880952Y-63802380D02*
X153214285Y-62802380D01*
X153547619Y-63802380D01*
X154309523Y-63802380D02*
X154309523Y-62802380D01*
X154309523Y-63754761D02*
X154214285Y-63802380D01*
X154023809Y-63802380D01*
X153928571Y-63754761D01*
X153880952Y-63707142D01*
X153833333Y-63611904D01*
X153833333Y-63326190D01*
X153880952Y-63230952D01*
X153928571Y-63183333D01*
X154023809Y-63135714D01*
X154214285Y-63135714D01*
X154309523Y-63183333D01*
X155214285Y-63802380D02*
X155214285Y-63278571D01*
X155166666Y-63183333D01*
X155071428Y-63135714D01*
X154880952Y-63135714D01*
X154785714Y-63183333D01*
X155214285Y-63754761D02*
X155119047Y-63802380D01*
X154880952Y-63802380D01*
X154785714Y-63754761D01*
X154738095Y-63659523D01*
X154738095Y-63564285D01*
X154785714Y-63469047D01*
X154880952Y-63421428D01*
X155119047Y-63421428D01*
X155214285Y-63373809D01*
X155690476Y-63135714D02*
X155690476Y-64135714D01*
X155690476Y-63183333D02*
X155785714Y-63135714D01*
X155976190Y-63135714D01*
X156071428Y-63183333D01*
X156119047Y-63230952D01*
X156166666Y-63326190D01*
X156166666Y-63611904D01*
X156119047Y-63707142D01*
X156071428Y-63754761D01*
X155976190Y-63802380D01*
X155785714Y-63802380D01*
X155690476Y-63754761D01*
X156452380Y-63135714D02*
X156833333Y-63135714D01*
X156595238Y-62802380D02*
X156595238Y-63659523D01*
X156642857Y-63754761D01*
X156738095Y-63802380D01*
X156833333Y-63802380D01*
X157547619Y-63754761D02*
X157452380Y-63802380D01*
X157261904Y-63802380D01*
X157166666Y-63754761D01*
X157119047Y-63659523D01*
X157119047Y-63278571D01*
X157166666Y-63183333D01*
X157261904Y-63135714D01*
X157452380Y-63135714D01*
X157547619Y-63183333D01*
X157595238Y-63278571D01*
X157595238Y-63373809D01*
X157119047Y-63469047D01*
X158023809Y-63802380D02*
X158023809Y-63135714D01*
X158023809Y-63326190D02*
X158071428Y-63230952D01*
X158119047Y-63183333D01*
X158214285Y-63135714D01*
X158309523Y-63135714D01*
X142976190Y-65452380D02*
X142642857Y-64976190D01*
X142404761Y-65452380D02*
X142404761Y-64452380D01*
X142785714Y-64452380D01*
X142880952Y-64500000D01*
X142928571Y-64547619D01*
X142976190Y-64642857D01*
X142976190Y-64785714D01*
X142928571Y-64880952D01*
X142880952Y-64928571D01*
X142785714Y-64976190D01*
X142404761Y-64976190D01*
X143785714Y-65404761D02*
X143690476Y-65452380D01*
X143500000Y-65452380D01*
X143404761Y-65404761D01*
X143357142Y-65309523D01*
X143357142Y-64928571D01*
X143404761Y-64833333D01*
X143500000Y-64785714D01*
X143690476Y-64785714D01*
X143785714Y-64833333D01*
X143833333Y-64928571D01*
X143833333Y-65023809D01*
X143357142Y-65119047D01*
X144166666Y-64785714D02*
X144404761Y-65452380D01*
X144642857Y-64785714D01*
X146309523Y-65452380D02*
X145738095Y-65452380D01*
X146023809Y-65452380D02*
X146023809Y-64452380D01*
X145928571Y-64595238D01*
X145833333Y-64690476D01*
X145738095Y-64738095D01*
X146785714Y-65404761D02*
X146785714Y-65452380D01*
X146738095Y-65547619D01*
X146690476Y-65595238D01*
X147928571Y-64547619D02*
X147976190Y-64500000D01*
X148071428Y-64452380D01*
X148309523Y-64452380D01*
X148404761Y-64500000D01*
X148452380Y-64547619D01*
X148500000Y-64642857D01*
X148500000Y-64738095D01*
X148452380Y-64880952D01*
X147880952Y-65452380D01*
X148500000Y-65452380D01*
X149119047Y-64452380D02*
X149214285Y-64452380D01*
X149309523Y-64500000D01*
X149357142Y-64547619D01*
X149404761Y-64642857D01*
X149452380Y-64833333D01*
X149452380Y-65071428D01*
X149404761Y-65261904D01*
X149357142Y-65357142D01*
X149309523Y-65404761D01*
X149214285Y-65452380D01*
X149119047Y-65452380D01*
X149023809Y-65404761D01*
X148976190Y-65357142D01*
X148928571Y-65261904D01*
X148880952Y-65071428D01*
X148880952Y-64833333D01*
X148928571Y-64642857D01*
X148976190Y-64547619D01*
X149023809Y-64500000D01*
X149119047Y-64452380D01*
X149833333Y-64547619D02*
X149880952Y-64500000D01*
X149976190Y-64452380D01*
X150214285Y-64452380D01*
X150309523Y-64500000D01*
X150357142Y-64547619D01*
X150404761Y-64642857D01*
X150404761Y-64738095D01*
X150357142Y-64880952D01*
X149785714Y-65452380D01*
X150404761Y-65452380D01*
X151357142Y-65452380D02*
X150785714Y-65452380D01*
X151071428Y-65452380D02*
X151071428Y-64452380D01*
X150976190Y-64595238D01*
X150880952Y-64690476D01*
X150785714Y-64738095D01*
X151785714Y-65071428D02*
X152547619Y-65071428D01*
X153214285Y-64452380D02*
X153309523Y-64452380D01*
X153404761Y-64500000D01*
X153452380Y-64547619D01*
X153500000Y-64642857D01*
X153547619Y-64833333D01*
X153547619Y-65071428D01*
X153500000Y-65261904D01*
X153452380Y-65357142D01*
X153404761Y-65404761D01*
X153309523Y-65452380D01*
X153214285Y-65452380D01*
X153119047Y-65404761D01*
X153071428Y-65357142D01*
X153023809Y-65261904D01*
X152976190Y-65071428D01*
X152976190Y-64833333D01*
X153023809Y-64642857D01*
X153071428Y-64547619D01*
X153119047Y-64500000D01*
X153214285Y-64452380D01*
X154500000Y-65452380D02*
X153928571Y-65452380D01*
X154214285Y-65452380D02*
X154214285Y-64452380D01*
X154119047Y-64595238D01*
X154023809Y-64690476D01*
X153928571Y-64738095D01*
X154928571Y-65071428D02*
X155690476Y-65071428D01*
X156690476Y-65452380D02*
X156119047Y-65452380D01*
X156404761Y-65452380D02*
X156404761Y-64452380D01*
X156309523Y-64595238D01*
X156214285Y-64690476D01*
X156119047Y-64738095D01*
X157023809Y-64452380D02*
X157690476Y-64452380D01*
X157261904Y-65452380D01*
X140833333Y-66102380D02*
X141404761Y-66102380D01*
X141119047Y-67102380D02*
X141119047Y-66102380D01*
X141880952Y-67102380D02*
X141785714Y-67054761D01*
X141738095Y-67007142D01*
X141690476Y-66911904D01*
X141690476Y-66626190D01*
X141738095Y-66530952D01*
X141785714Y-66483333D01*
X141880952Y-66435714D01*
X142023809Y-66435714D01*
X142119047Y-66483333D01*
X142166666Y-66530952D01*
X142214285Y-66626190D01*
X142214285Y-66911904D01*
X142166666Y-67007142D01*
X142119047Y-67054761D01*
X142023809Y-67102380D01*
X141880952Y-67102380D01*
X142642857Y-67102380D02*
X142642857Y-66102380D01*
X142642857Y-66483333D02*
X142738095Y-66435714D01*
X142928571Y-66435714D01*
X143023809Y-66483333D01*
X143071428Y-66530952D01*
X143119047Y-66626190D01*
X143119047Y-66911904D01*
X143071428Y-67007142D01*
X143023809Y-67054761D01*
X142928571Y-67102380D01*
X142738095Y-67102380D01*
X142642857Y-67054761D01*
X143547619Y-67102380D02*
X143547619Y-66435714D01*
X143547619Y-66102380D02*
X143500000Y-66150000D01*
X143547619Y-66197619D01*
X143595238Y-66150000D01*
X143547619Y-66102380D01*
X143547619Y-66197619D01*
X144452380Y-67102380D02*
X144452380Y-66578571D01*
X144404761Y-66483333D01*
X144309523Y-66435714D01*
X144119047Y-66435714D01*
X144023809Y-66483333D01*
X144452380Y-67054761D02*
X144357142Y-67102380D01*
X144119047Y-67102380D01*
X144023809Y-67054761D01*
X143976190Y-66959523D01*
X143976190Y-66864285D01*
X144023809Y-66769047D01*
X144119047Y-66721428D01*
X144357142Y-66721428D01*
X144452380Y-66673809D01*
X144880952Y-67054761D02*
X144976190Y-67102380D01*
X145166666Y-67102380D01*
X145261904Y-67054761D01*
X145309523Y-66959523D01*
X145309523Y-66911904D01*
X145261904Y-66816666D01*
X145166666Y-66769047D01*
X145023809Y-66769047D01*
X144928571Y-66721428D01*
X144880952Y-66626190D01*
X144880952Y-66578571D01*
X144928571Y-66483333D01*
X145023809Y-66435714D01*
X145166666Y-66435714D01*
X145261904Y-66483333D01*
X146500000Y-67102380D02*
X146500000Y-66102380D01*
X146833333Y-66816666D01*
X147166666Y-66102380D01*
X147166666Y-67102380D01*
X148071428Y-66435714D02*
X148071428Y-67102380D01*
X147642857Y-66435714D02*
X147642857Y-66959523D01*
X147690476Y-67054761D01*
X147785714Y-67102380D01*
X147928571Y-67102380D01*
X148023809Y-67054761D01*
X148071428Y-67007142D01*
X147690476Y-66102380D02*
X147738095Y-66150000D01*
X147690476Y-66197619D01*
X147642857Y-66150000D01*
X147690476Y-66102380D01*
X147690476Y-66197619D01*
X148071428Y-66102380D02*
X148119047Y-66150000D01*
X148071428Y-66197619D01*
X148023809Y-66150000D01*
X148071428Y-66102380D01*
X148071428Y-66197619D01*
X148690476Y-67102380D02*
X148595238Y-67054761D01*
X148547619Y-66959523D01*
X148547619Y-66102380D01*
X149214285Y-67102380D02*
X149119047Y-67054761D01*
X149071428Y-66959523D01*
X149071428Y-66102380D01*
X149976190Y-67054761D02*
X149880952Y-67102380D01*
X149690476Y-67102380D01*
X149595238Y-67054761D01*
X149547619Y-66959523D01*
X149547619Y-66578571D01*
X149595238Y-66483333D01*
X149690476Y-66435714D01*
X149880952Y-66435714D01*
X149976190Y-66483333D01*
X150023809Y-66578571D01*
X150023809Y-66673809D01*
X149547619Y-66769047D01*
X150452380Y-67102380D02*
X150452380Y-66435714D01*
X150452380Y-66626190D02*
X150499999Y-66530952D01*
X150547619Y-66483333D01*
X150642857Y-66435714D01*
X150738095Y-66435714D01*
X151119047Y-67054761D02*
X151119047Y-67102380D01*
X151071428Y-67197619D01*
X151023809Y-67245238D01*
X152166666Y-66435714D02*
X152547619Y-66435714D01*
X152309523Y-66102380D02*
X152309523Y-66959523D01*
X152357142Y-67054761D01*
X152452380Y-67102380D01*
X152547619Y-67102380D01*
X152785714Y-66435714D02*
X152976190Y-67102380D01*
X153166666Y-66626190D01*
X153357142Y-67102380D01*
X153547619Y-66435714D01*
X154357142Y-67102380D02*
X154357142Y-66578571D01*
X154309523Y-66483333D01*
X154214285Y-66435714D01*
X154023809Y-66435714D01*
X153928571Y-66483333D01*
X154357142Y-67054761D02*
X154261904Y-67102380D01*
X154023809Y-67102380D01*
X153928571Y-67054761D01*
X153880952Y-66959523D01*
X153880952Y-66864285D01*
X153928571Y-66769047D01*
X154023809Y-66721428D01*
X154261904Y-66721428D01*
X154357142Y-66673809D01*
X154833333Y-67102380D02*
X154833333Y-66435714D01*
X154833333Y-66530952D02*
X154880952Y-66483333D01*
X154976190Y-66435714D01*
X155119047Y-66435714D01*
X155214285Y-66483333D01*
X155261904Y-66578571D01*
X155261904Y-67102380D01*
X155261904Y-66578571D02*
X155309523Y-66483333D01*
X155404761Y-66435714D01*
X155547619Y-66435714D01*
X155642857Y-66483333D01*
X155690476Y-66578571D01*
X155690476Y-67102380D01*
X156166666Y-67007142D02*
X156214285Y-67054761D01*
X156166666Y-67102380D01*
X156119047Y-67054761D01*
X156166666Y-67007142D01*
X156166666Y-67102380D01*
X156642857Y-67102380D02*
X156642857Y-66435714D01*
X156642857Y-66102380D02*
X156595238Y-66150000D01*
X156642857Y-66197619D01*
X156690476Y-66150000D01*
X156642857Y-66102380D01*
X156642857Y-66197619D01*
X157119047Y-66435714D02*
X157119047Y-67102380D01*
X157119047Y-66530952D02*
X157166666Y-66483333D01*
X157261904Y-66435714D01*
X157404761Y-66435714D01*
X157499999Y-66483333D01*
X157547619Y-66578571D01*
X157547619Y-67102380D01*
X157880952Y-66435714D02*
X158261904Y-66435714D01*
X158023809Y-67102380D02*
X158023809Y-66245238D01*
X158071428Y-66150000D01*
X158166666Y-66102380D01*
X158261904Y-66102380D01*
X158738095Y-67102380D02*
X158642857Y-67054761D01*
X158595238Y-67007142D01*
X158547619Y-66911904D01*
X158547619Y-66626190D01*
X158595238Y-66530952D01*
X158642857Y-66483333D01*
X158738095Y-66435714D01*
X158880952Y-66435714D01*
X158976190Y-66483333D01*
X159023809Y-66530952D01*
X159071428Y-66626190D01*
X159071428Y-66911904D01*
X159023809Y-67007142D01*
X158976190Y-67054761D01*
X158880952Y-67102380D01*
X158738095Y-67102380D01*
D11*
%TO.C,U1*%
X146125000Y-85702500D02*
X148075000Y-85702500D01*
X146125000Y-85702500D02*
X144175000Y-85702500D01*
X146125000Y-76832500D02*
X148075000Y-76832500D01*
X146125000Y-76832500D02*
X142675000Y-76832500D01*
%TO.C,RN2*%
X141335000Y-98912500D02*
X141335000Y-97912500D01*
X144695000Y-98912500D02*
X144695000Y-97912500D01*
%TO.C,D8*%
X155015000Y-85285000D02*
X156915000Y-85285000D01*
X156415000Y-82965000D02*
X155015000Y-82965000D01*
%TO.C,D7*%
X155015000Y-89095000D02*
X156915000Y-89095000D01*
X156415000Y-86775000D02*
X155015000Y-86775000D01*
%TO.C,D6*%
X144985000Y-91855000D02*
X143085000Y-91855000D01*
X143585000Y-94175000D02*
X144985000Y-94175000D01*
%TO.C,D5*%
X144985000Y-88045000D02*
X143085000Y-88045000D01*
X143585000Y-90365000D02*
X144985000Y-90365000D01*
%TO.C,D4*%
X160905000Y-101522500D02*
X160905000Y-103422500D01*
X163225000Y-102922500D02*
X163225000Y-101522500D01*
%TO.C,D3*%
X157095000Y-101522500D02*
X157095000Y-103422500D01*
X159415000Y-102922500D02*
X159415000Y-101522500D01*
%TO.C,D2*%
X141855000Y-101522500D02*
X141855000Y-103422500D01*
X144175000Y-102922500D02*
X144175000Y-101522500D01*
%TO.C,D1*%
X138045000Y-101522500D02*
X138045000Y-103422500D01*
X140365000Y-102922500D02*
X140365000Y-101522500D01*
%TO.C,RN4*%
X160385000Y-98912500D02*
X160385000Y-97912500D01*
X163745000Y-98912500D02*
X163745000Y-97912500D01*
%TO.C,RN8*%
X152405000Y-85805000D02*
X151405000Y-85805000D01*
X152405000Y-82445000D02*
X151405000Y-82445000D01*
%TO.C,RN7*%
X152405000Y-89615000D02*
X151405000Y-89615000D01*
X152405000Y-86255000D02*
X151405000Y-86255000D01*
%TO.C,RN6*%
X147595000Y-91335000D02*
X148595000Y-91335000D01*
X147595000Y-94695000D02*
X148595000Y-94695000D01*
%TO.C,RN5*%
X147595000Y-87525000D02*
X148595000Y-87525000D01*
X147595000Y-90885000D02*
X148595000Y-90885000D01*
%TO.C,RN3*%
X156575000Y-98912500D02*
X156575000Y-97912500D01*
X159935000Y-98912500D02*
X159935000Y-97912500D01*
%TO.C,RN1*%
X137525000Y-98912500D02*
X137525000Y-97912500D01*
X140885000Y-98912500D02*
X140885000Y-97912500D01*
%TO.C,R3*%
X153380000Y-78172742D02*
X153380000Y-78647258D01*
X152335000Y-78172742D02*
X152335000Y-78647258D01*
%TO.C,R2*%
X159287742Y-78522500D02*
X159762258Y-78522500D01*
X159287742Y-79567500D02*
X159762258Y-79567500D01*
%TO.C,R1*%
X154240000Y-78647258D02*
X154240000Y-78172742D01*
X155285000Y-78647258D02*
X155285000Y-78172742D01*
%TO.C,J6*%
X136665000Y-79362500D02*
X136665000Y-78727500D01*
X137300000Y-79362500D02*
X136665000Y-79362500D01*
%TO.C,J4*%
X172430000Y-96130000D02*
X163800000Y-96130000D01*
X172430000Y-96011905D02*
X163800000Y-96011905D01*
X172430000Y-95893810D02*
X163800000Y-95893810D01*
X172430000Y-95775715D02*
X163800000Y-95775715D01*
X172430000Y-95657620D02*
X163800000Y-95657620D01*
X172430000Y-95539525D02*
X163800000Y-95539525D01*
X172430000Y-95421430D02*
X163800000Y-95421430D01*
X172430000Y-95303335D02*
X163800000Y-95303335D01*
X172430000Y-95185240D02*
X163800000Y-95185240D01*
X172430000Y-95067145D02*
X163800000Y-95067145D01*
X172430000Y-94949050D02*
X163800000Y-94949050D01*
X172430000Y-94830955D02*
X163800000Y-94830955D01*
X172430000Y-94712860D02*
X163800000Y-94712860D01*
X172430000Y-94594765D02*
X163800000Y-94594765D01*
X172430000Y-94476670D02*
X163800000Y-94476670D01*
X172430000Y-94358575D02*
X163800000Y-94358575D01*
X172430000Y-94240480D02*
X163800000Y-94240480D01*
X172430000Y-94122385D02*
X163800000Y-94122385D01*
X172430000Y-94004290D02*
X163800000Y-94004290D01*
X172430000Y-93886195D02*
X163800000Y-93886195D01*
X172430000Y-93768100D02*
X163800000Y-93768100D01*
X163800000Y-95280000D02*
X163390000Y-95280000D01*
X161290000Y-95280000D02*
X160910000Y-95280000D01*
X163800000Y-94560000D02*
X163390000Y-94560000D01*
X161290000Y-94560000D02*
X160910000Y-94560000D01*
X163800000Y-92740000D02*
X163390000Y-92740000D01*
X161290000Y-92740000D02*
X160850000Y-92740000D01*
X163800000Y-92020000D02*
X163390000Y-92020000D01*
X161290000Y-92020000D02*
X160850000Y-92020000D01*
X163800000Y-90200000D02*
X163390000Y-90200000D01*
X161290000Y-90200000D02*
X160850000Y-90200000D01*
X163800000Y-89480000D02*
X163390000Y-89480000D01*
X161290000Y-89480000D02*
X160850000Y-89480000D01*
X163800000Y-87660000D02*
X163390000Y-87660000D01*
X161290000Y-87660000D02*
X160850000Y-87660000D01*
X163800000Y-86940000D02*
X163390000Y-86940000D01*
X161290000Y-86940000D02*
X160850000Y-86940000D01*
X163800000Y-85120000D02*
X163390000Y-85120000D01*
X161290000Y-85120000D02*
X160850000Y-85120000D01*
X163800000Y-84400000D02*
X163390000Y-84400000D01*
X161290000Y-84400000D02*
X160850000Y-84400000D01*
X163800000Y-82580000D02*
X163390000Y-82580000D01*
X161290000Y-82580000D02*
X160850000Y-82580000D01*
X163800000Y-81860000D02*
X163390000Y-81860000D01*
X161290000Y-81860000D02*
X160850000Y-81860000D01*
X172430000Y-93650000D02*
X163800000Y-93650000D01*
X172430000Y-91110000D02*
X163800000Y-91110000D01*
X172430000Y-88570000D02*
X163800000Y-88570000D01*
X172430000Y-86030000D02*
X163800000Y-86030000D01*
X172430000Y-83490000D02*
X163800000Y-83490000D01*
X172430000Y-96250000D02*
X163800000Y-96250000D01*
X163800000Y-96250000D02*
X163800000Y-80890000D01*
X172430000Y-80890000D02*
X163800000Y-80890000D01*
X172430000Y-96250000D02*
X172430000Y-80890000D01*
X158690000Y-96250000D02*
X158690000Y-94920000D01*
X159800000Y-96250000D02*
X158690000Y-96250000D01*
%TO.C,J3*%
X127570000Y-81010000D02*
X136200000Y-81010000D01*
X127570000Y-81128095D02*
X136200000Y-81128095D01*
X127570000Y-81246190D02*
X136200000Y-81246190D01*
X127570000Y-81364285D02*
X136200000Y-81364285D01*
X127570000Y-81482380D02*
X136200000Y-81482380D01*
X127570000Y-81600475D02*
X136200000Y-81600475D01*
X127570000Y-81718570D02*
X136200000Y-81718570D01*
X127570000Y-81836665D02*
X136200000Y-81836665D01*
X127570000Y-81954760D02*
X136200000Y-81954760D01*
X127570000Y-82072855D02*
X136200000Y-82072855D01*
X127570000Y-82190950D02*
X136200000Y-82190950D01*
X127570000Y-82309045D02*
X136200000Y-82309045D01*
X127570000Y-82427140D02*
X136200000Y-82427140D01*
X127570000Y-82545235D02*
X136200000Y-82545235D01*
X127570000Y-82663330D02*
X136200000Y-82663330D01*
X127570000Y-82781425D02*
X136200000Y-82781425D01*
X127570000Y-82899520D02*
X136200000Y-82899520D01*
X127570000Y-83017615D02*
X136200000Y-83017615D01*
X127570000Y-83135710D02*
X136200000Y-83135710D01*
X127570000Y-83253805D02*
X136200000Y-83253805D01*
X127570000Y-83371900D02*
X136200000Y-83371900D01*
X136200000Y-81860000D02*
X136610000Y-81860000D01*
X138710000Y-81860000D02*
X139090000Y-81860000D01*
X136200000Y-82580000D02*
X136610000Y-82580000D01*
X138710000Y-82580000D02*
X139090000Y-82580000D01*
X136200000Y-84400000D02*
X136610000Y-84400000D01*
X138710000Y-84400000D02*
X139150000Y-84400000D01*
X136200000Y-85120000D02*
X136610000Y-85120000D01*
X138710000Y-85120000D02*
X139150000Y-85120000D01*
X136200000Y-86940000D02*
X136610000Y-86940000D01*
X138710000Y-86940000D02*
X139150000Y-86940000D01*
X136200000Y-87660000D02*
X136610000Y-87660000D01*
X138710000Y-87660000D02*
X139150000Y-87660000D01*
X136200000Y-89480000D02*
X136610000Y-89480000D01*
X138710000Y-89480000D02*
X139150000Y-89480000D01*
X136200000Y-90200000D02*
X136610000Y-90200000D01*
X138710000Y-90200000D02*
X139150000Y-90200000D01*
X136200000Y-92020000D02*
X136610000Y-92020000D01*
X138710000Y-92020000D02*
X139150000Y-92020000D01*
X136200000Y-92740000D02*
X136610000Y-92740000D01*
X138710000Y-92740000D02*
X139150000Y-92740000D01*
X136200000Y-94560000D02*
X136610000Y-94560000D01*
X138710000Y-94560000D02*
X139150000Y-94560000D01*
X136200000Y-95280000D02*
X136610000Y-95280000D01*
X138710000Y-95280000D02*
X139150000Y-95280000D01*
X127570000Y-83490000D02*
X136200000Y-83490000D01*
X127570000Y-86030000D02*
X136200000Y-86030000D01*
X127570000Y-88570000D02*
X136200000Y-88570000D01*
X127570000Y-91110000D02*
X136200000Y-91110000D01*
X127570000Y-93650000D02*
X136200000Y-93650000D01*
X127570000Y-80890000D02*
X136200000Y-80890000D01*
X136200000Y-80890000D02*
X136200000Y-96250000D01*
X127570000Y-96250000D02*
X136200000Y-96250000D01*
X127570000Y-80890000D02*
X127570000Y-96250000D01*
X141310000Y-80890000D02*
X141310000Y-82220000D01*
X140200000Y-80890000D02*
X141310000Y-80890000D01*
%TO.C,J2*%
X153870000Y-118930000D02*
X153870000Y-110300000D01*
X153988095Y-118930000D02*
X153988095Y-110300000D01*
X154106190Y-118930000D02*
X154106190Y-110300000D01*
X154224285Y-118930000D02*
X154224285Y-110300000D01*
X154342380Y-118930000D02*
X154342380Y-110300000D01*
X154460475Y-118930000D02*
X154460475Y-110300000D01*
X154578570Y-118930000D02*
X154578570Y-110300000D01*
X154696665Y-118930000D02*
X154696665Y-110300000D01*
X154814760Y-118930000D02*
X154814760Y-110300000D01*
X154932855Y-118930000D02*
X154932855Y-110300000D01*
X155050950Y-118930000D02*
X155050950Y-110300000D01*
X155169045Y-118930000D02*
X155169045Y-110300000D01*
X155287140Y-118930000D02*
X155287140Y-110300000D01*
X155405235Y-118930000D02*
X155405235Y-110300000D01*
X155523330Y-118930000D02*
X155523330Y-110300000D01*
X155641425Y-118930000D02*
X155641425Y-110300000D01*
X155759520Y-118930000D02*
X155759520Y-110300000D01*
X155877615Y-118930000D02*
X155877615Y-110300000D01*
X155995710Y-118930000D02*
X155995710Y-110300000D01*
X156113805Y-118930000D02*
X156113805Y-110300000D01*
X156231900Y-118930000D02*
X156231900Y-110300000D01*
X154720000Y-110300000D02*
X154720000Y-109890000D01*
X154720000Y-107790000D02*
X154720000Y-107410000D01*
X155440000Y-110300000D02*
X155440000Y-109890000D01*
X155440000Y-107790000D02*
X155440000Y-107410000D01*
X157260000Y-110300000D02*
X157260000Y-109890000D01*
X157260000Y-107790000D02*
X157260000Y-107350000D01*
X157980000Y-110300000D02*
X157980000Y-109890000D01*
X157980000Y-107790000D02*
X157980000Y-107350000D01*
X159800000Y-110300000D02*
X159800000Y-109890000D01*
X159800000Y-107790000D02*
X159800000Y-107350000D01*
X160520000Y-110300000D02*
X160520000Y-109890000D01*
X160520000Y-107790000D02*
X160520000Y-107350000D01*
X162340000Y-110300000D02*
X162340000Y-109890000D01*
X162340000Y-107790000D02*
X162340000Y-107350000D01*
X163060000Y-110300000D02*
X163060000Y-109890000D01*
X163060000Y-107790000D02*
X163060000Y-107350000D01*
X164880000Y-110300000D02*
X164880000Y-109890000D01*
X164880000Y-107790000D02*
X164880000Y-107350000D01*
X165600000Y-110300000D02*
X165600000Y-109890000D01*
X165600000Y-107790000D02*
X165600000Y-107350000D01*
X167420000Y-110300000D02*
X167420000Y-109890000D01*
X167420000Y-107790000D02*
X167420000Y-107350000D01*
X168140000Y-110300000D02*
X168140000Y-109890000D01*
X168140000Y-107790000D02*
X168140000Y-107350000D01*
X156350000Y-118930000D02*
X156350000Y-110300000D01*
X158890000Y-118930000D02*
X158890000Y-110300000D01*
X161430000Y-118930000D02*
X161430000Y-110300000D01*
X163970000Y-118930000D02*
X163970000Y-110300000D01*
X166510000Y-118930000D02*
X166510000Y-110300000D01*
X153750000Y-118930000D02*
X153750000Y-110300000D01*
X153750000Y-110300000D02*
X169110000Y-110300000D01*
X169110000Y-118930000D02*
X169110000Y-110300000D01*
X153750000Y-118930000D02*
X169110000Y-118930000D01*
X153750000Y-105190000D02*
X155080000Y-105190000D01*
X153750000Y-106300000D02*
X153750000Y-105190000D01*
%TO.C,J1*%
X131010000Y-118930000D02*
X131010000Y-110300000D01*
X131128095Y-118930000D02*
X131128095Y-110300000D01*
X131246190Y-118930000D02*
X131246190Y-110300000D01*
X131364285Y-118930000D02*
X131364285Y-110300000D01*
X131482380Y-118930000D02*
X131482380Y-110300000D01*
X131600475Y-118930000D02*
X131600475Y-110300000D01*
X131718570Y-118930000D02*
X131718570Y-110300000D01*
X131836665Y-118930000D02*
X131836665Y-110300000D01*
X131954760Y-118930000D02*
X131954760Y-110300000D01*
X132072855Y-118930000D02*
X132072855Y-110300000D01*
X132190950Y-118930000D02*
X132190950Y-110300000D01*
X132309045Y-118930000D02*
X132309045Y-110300000D01*
X132427140Y-118930000D02*
X132427140Y-110300000D01*
X132545235Y-118930000D02*
X132545235Y-110300000D01*
X132663330Y-118930000D02*
X132663330Y-110300000D01*
X132781425Y-118930000D02*
X132781425Y-110300000D01*
X132899520Y-118930000D02*
X132899520Y-110300000D01*
X133017615Y-118930000D02*
X133017615Y-110300000D01*
X133135710Y-118930000D02*
X133135710Y-110300000D01*
X133253805Y-118930000D02*
X133253805Y-110300000D01*
X133371900Y-118930000D02*
X133371900Y-110300000D01*
X131860000Y-110300000D02*
X131860000Y-109890000D01*
X131860000Y-107790000D02*
X131860000Y-107410000D01*
X132580000Y-110300000D02*
X132580000Y-109890000D01*
X132580000Y-107790000D02*
X132580000Y-107410000D01*
X134400000Y-110300000D02*
X134400000Y-109890000D01*
X134400000Y-107790000D02*
X134400000Y-107350000D01*
X135120000Y-110300000D02*
X135120000Y-109890000D01*
X135120000Y-107790000D02*
X135120000Y-107350000D01*
X136940000Y-110300000D02*
X136940000Y-109890000D01*
X136940000Y-107790000D02*
X136940000Y-107350000D01*
X137660000Y-110300000D02*
X137660000Y-109890000D01*
X137660000Y-107790000D02*
X137660000Y-107350000D01*
X139480000Y-110300000D02*
X139480000Y-109890000D01*
X139480000Y-107790000D02*
X139480000Y-107350000D01*
X140200000Y-110300000D02*
X140200000Y-109890000D01*
X140200000Y-107790000D02*
X140200000Y-107350000D01*
X142020000Y-110300000D02*
X142020000Y-109890000D01*
X142020000Y-107790000D02*
X142020000Y-107350000D01*
X142740000Y-110300000D02*
X142740000Y-109890000D01*
X142740000Y-107790000D02*
X142740000Y-107350000D01*
X144560000Y-110300000D02*
X144560000Y-109890000D01*
X144560000Y-107790000D02*
X144560000Y-107350000D01*
X145280000Y-110300000D02*
X145280000Y-109890000D01*
X145280000Y-107790000D02*
X145280000Y-107350000D01*
X133490000Y-118930000D02*
X133490000Y-110300000D01*
X136030000Y-118930000D02*
X136030000Y-110300000D01*
X138570000Y-118930000D02*
X138570000Y-110300000D01*
X141110000Y-118930000D02*
X141110000Y-110300000D01*
X143650000Y-118930000D02*
X143650000Y-110300000D01*
X130890000Y-118930000D02*
X130890000Y-110300000D01*
X130890000Y-110300000D02*
X146250000Y-110300000D01*
X146250000Y-118930000D02*
X146250000Y-110300000D01*
X130890000Y-118930000D02*
X146250000Y-118930000D01*
X130890000Y-105190000D02*
X132220000Y-105190000D01*
X130890000Y-106300000D02*
X130890000Y-105190000D01*
%TO.C,D9*%
X161900000Y-79780000D02*
X164185000Y-79780000D01*
X164185000Y-79780000D02*
X164185000Y-78310000D01*
X164185000Y-78310000D02*
X161900000Y-78310000D01*
%TO.C,C2*%
X157177500Y-78269420D02*
X157177500Y-78550580D01*
X156157500Y-78269420D02*
X156157500Y-78550580D01*
%TO.C,C1*%
X150442500Y-78550580D02*
X150442500Y-78269420D01*
X151462500Y-78550580D02*
X151462500Y-78269420D01*
%TO.C,U1*%
D10*
X145298095Y-75322380D02*
X145298095Y-76131904D01*
X145345714Y-76227142D01*
X145393333Y-76274761D01*
X145488571Y-76322380D01*
X145679047Y-76322380D01*
X145774285Y-76274761D01*
X145821904Y-76227142D01*
X145869523Y-76131904D01*
X145869523Y-75322380D01*
X146869523Y-76322380D02*
X146298095Y-76322380D01*
X146583809Y-76322380D02*
X146583809Y-75322380D01*
X146488571Y-75465238D01*
X146393333Y-75560476D01*
X146298095Y-75608095D01*
%TO.C,RN2*%
X146007380Y-99102976D02*
X145531190Y-99436309D01*
X146007380Y-99674404D02*
X145007380Y-99674404D01*
X145007380Y-99293452D01*
X145055000Y-99198214D01*
X145102619Y-99150595D01*
X145197857Y-99102976D01*
X145340714Y-99102976D01*
X145435952Y-99150595D01*
X145483571Y-99198214D01*
X145531190Y-99293452D01*
X145531190Y-99674404D01*
X146007380Y-98674404D02*
X145007380Y-98674404D01*
X146007380Y-98102976D01*
X145007380Y-98102976D01*
X145102619Y-97674404D02*
X145055000Y-97626785D01*
X145007380Y-97531547D01*
X145007380Y-97293452D01*
X145055000Y-97198214D01*
X145102619Y-97150595D01*
X145197857Y-97102976D01*
X145293095Y-97102976D01*
X145435952Y-97150595D01*
X146007380Y-97722023D01*
X146007380Y-97102976D01*
%TO.C,D8*%
X154976904Y-82354880D02*
X154976904Y-81354880D01*
X155215000Y-81354880D01*
X155357857Y-81402500D01*
X155453095Y-81497738D01*
X155500714Y-81592976D01*
X155548333Y-81783452D01*
X155548333Y-81926309D01*
X155500714Y-82116785D01*
X155453095Y-82212023D01*
X155357857Y-82307261D01*
X155215000Y-82354880D01*
X154976904Y-82354880D01*
X156119761Y-81783452D02*
X156024523Y-81735833D01*
X155976904Y-81688214D01*
X155929285Y-81592976D01*
X155929285Y-81545357D01*
X155976904Y-81450119D01*
X156024523Y-81402500D01*
X156119761Y-81354880D01*
X156310238Y-81354880D01*
X156405476Y-81402500D01*
X156453095Y-81450119D01*
X156500714Y-81545357D01*
X156500714Y-81592976D01*
X156453095Y-81688214D01*
X156405476Y-81735833D01*
X156310238Y-81783452D01*
X156119761Y-81783452D01*
X156024523Y-81831071D01*
X155976904Y-81878690D01*
X155929285Y-81973928D01*
X155929285Y-82164404D01*
X155976904Y-82259642D01*
X156024523Y-82307261D01*
X156119761Y-82354880D01*
X156310238Y-82354880D01*
X156405476Y-82307261D01*
X156453095Y-82259642D01*
X156500714Y-82164404D01*
X156500714Y-81973928D01*
X156453095Y-81878690D01*
X156405476Y-81831071D01*
X156310238Y-81783452D01*
%TO.C,D7*%
X154976904Y-90609880D02*
X154976904Y-89609880D01*
X155215000Y-89609880D01*
X155357857Y-89657500D01*
X155453095Y-89752738D01*
X155500714Y-89847976D01*
X155548333Y-90038452D01*
X155548333Y-90181309D01*
X155500714Y-90371785D01*
X155453095Y-90467023D01*
X155357857Y-90562261D01*
X155215000Y-90609880D01*
X154976904Y-90609880D01*
X155881666Y-89609880D02*
X156548333Y-89609880D01*
X156119761Y-90609880D01*
%TO.C,D6*%
X143546904Y-95689880D02*
X143546904Y-94689880D01*
X143785000Y-94689880D01*
X143927857Y-94737500D01*
X144023095Y-94832738D01*
X144070714Y-94927976D01*
X144118333Y-95118452D01*
X144118333Y-95261309D01*
X144070714Y-95451785D01*
X144023095Y-95547023D01*
X143927857Y-95642261D01*
X143785000Y-95689880D01*
X143546904Y-95689880D01*
X144975476Y-94689880D02*
X144785000Y-94689880D01*
X144689761Y-94737500D01*
X144642142Y-94785119D01*
X144546904Y-94927976D01*
X144499285Y-95118452D01*
X144499285Y-95499404D01*
X144546904Y-95594642D01*
X144594523Y-95642261D01*
X144689761Y-95689880D01*
X144880238Y-95689880D01*
X144975476Y-95642261D01*
X145023095Y-95594642D01*
X145070714Y-95499404D01*
X145070714Y-95261309D01*
X145023095Y-95166071D01*
X144975476Y-95118452D01*
X144880238Y-95070833D01*
X144689761Y-95070833D01*
X144594523Y-95118452D01*
X144546904Y-95166071D01*
X144499285Y-95261309D01*
%TO.C,D5*%
X143546904Y-87434880D02*
X143546904Y-86434880D01*
X143785000Y-86434880D01*
X143927857Y-86482500D01*
X144023095Y-86577738D01*
X144070714Y-86672976D01*
X144118333Y-86863452D01*
X144118333Y-87006309D01*
X144070714Y-87196785D01*
X144023095Y-87292023D01*
X143927857Y-87387261D01*
X143785000Y-87434880D01*
X143546904Y-87434880D01*
X145023095Y-86434880D02*
X144546904Y-86434880D01*
X144499285Y-86911071D01*
X144546904Y-86863452D01*
X144642142Y-86815833D01*
X144880238Y-86815833D01*
X144975476Y-86863452D01*
X145023095Y-86911071D01*
X145070714Y-87006309D01*
X145070714Y-87244404D01*
X145023095Y-87339642D01*
X144975476Y-87387261D01*
X144880238Y-87434880D01*
X144642142Y-87434880D01*
X144546904Y-87387261D01*
X144499285Y-87339642D01*
%TO.C,D4*%
X164739880Y-102960595D02*
X163739880Y-102960595D01*
X163739880Y-102722500D01*
X163787500Y-102579642D01*
X163882738Y-102484404D01*
X163977976Y-102436785D01*
X164168452Y-102389166D01*
X164311309Y-102389166D01*
X164501785Y-102436785D01*
X164597023Y-102484404D01*
X164692261Y-102579642D01*
X164739880Y-102722500D01*
X164739880Y-102960595D01*
X164073214Y-101532023D02*
X164739880Y-101532023D01*
X163692261Y-101770119D02*
X164406547Y-102008214D01*
X164406547Y-101389166D01*
%TO.C,D3*%
X156484880Y-102960595D02*
X155484880Y-102960595D01*
X155484880Y-102722500D01*
X155532500Y-102579642D01*
X155627738Y-102484404D01*
X155722976Y-102436785D01*
X155913452Y-102389166D01*
X156056309Y-102389166D01*
X156246785Y-102436785D01*
X156342023Y-102484404D01*
X156437261Y-102579642D01*
X156484880Y-102722500D01*
X156484880Y-102960595D01*
X155484880Y-102055833D02*
X155484880Y-101436785D01*
X155865833Y-101770119D01*
X155865833Y-101627261D01*
X155913452Y-101532023D01*
X155961071Y-101484404D01*
X156056309Y-101436785D01*
X156294404Y-101436785D01*
X156389642Y-101484404D01*
X156437261Y-101532023D01*
X156484880Y-101627261D01*
X156484880Y-101912976D01*
X156437261Y-102008214D01*
X156389642Y-102055833D01*
%TO.C,D2*%
X145689880Y-102960595D02*
X144689880Y-102960595D01*
X144689880Y-102722500D01*
X144737500Y-102579642D01*
X144832738Y-102484404D01*
X144927976Y-102436785D01*
X145118452Y-102389166D01*
X145261309Y-102389166D01*
X145451785Y-102436785D01*
X145547023Y-102484404D01*
X145642261Y-102579642D01*
X145689880Y-102722500D01*
X145689880Y-102960595D01*
X144785119Y-102008214D02*
X144737500Y-101960595D01*
X144689880Y-101865357D01*
X144689880Y-101627261D01*
X144737500Y-101532023D01*
X144785119Y-101484404D01*
X144880357Y-101436785D01*
X144975595Y-101436785D01*
X145118452Y-101484404D01*
X145689880Y-102055833D01*
X145689880Y-101436785D01*
%TO.C,D1*%
X137434880Y-102960595D02*
X136434880Y-102960595D01*
X136434880Y-102722500D01*
X136482500Y-102579642D01*
X136577738Y-102484404D01*
X136672976Y-102436785D01*
X136863452Y-102389166D01*
X137006309Y-102389166D01*
X137196785Y-102436785D01*
X137292023Y-102484404D01*
X137387261Y-102579642D01*
X137434880Y-102722500D01*
X137434880Y-102960595D01*
X137434880Y-101436785D02*
X137434880Y-102008214D01*
X137434880Y-101722500D02*
X136434880Y-101722500D01*
X136577738Y-101817738D01*
X136672976Y-101912976D01*
X136720595Y-102008214D01*
%TO.C,RN4*%
X165057380Y-99102976D02*
X164581190Y-99436309D01*
X165057380Y-99674404D02*
X164057380Y-99674404D01*
X164057380Y-99293452D01*
X164105000Y-99198214D01*
X164152619Y-99150595D01*
X164247857Y-99102976D01*
X164390714Y-99102976D01*
X164485952Y-99150595D01*
X164533571Y-99198214D01*
X164581190Y-99293452D01*
X164581190Y-99674404D01*
X165057380Y-98674404D02*
X164057380Y-98674404D01*
X165057380Y-98102976D01*
X164057380Y-98102976D01*
X164390714Y-97198214D02*
X165057380Y-97198214D01*
X164009761Y-97436309D02*
X164724047Y-97674404D01*
X164724047Y-97055357D01*
%TO.C,RN8*%
X151214523Y-81952380D02*
X150881190Y-81476190D01*
X150643095Y-81952380D02*
X150643095Y-80952380D01*
X151024047Y-80952380D01*
X151119285Y-81000000D01*
X151166904Y-81047619D01*
X151214523Y-81142857D01*
X151214523Y-81285714D01*
X151166904Y-81380952D01*
X151119285Y-81428571D01*
X151024047Y-81476190D01*
X150643095Y-81476190D01*
X151643095Y-81952380D02*
X151643095Y-80952380D01*
X152214523Y-81952380D01*
X152214523Y-80952380D01*
X152833571Y-81380952D02*
X152738333Y-81333333D01*
X152690714Y-81285714D01*
X152643095Y-81190476D01*
X152643095Y-81142857D01*
X152690714Y-81047619D01*
X152738333Y-81000000D01*
X152833571Y-80952380D01*
X153024047Y-80952380D01*
X153119285Y-81000000D01*
X153166904Y-81047619D01*
X153214523Y-81142857D01*
X153214523Y-81190476D01*
X153166904Y-81285714D01*
X153119285Y-81333333D01*
X153024047Y-81380952D01*
X152833571Y-81380952D01*
X152738333Y-81428571D01*
X152690714Y-81476190D01*
X152643095Y-81571428D01*
X152643095Y-81761904D01*
X152690714Y-81857142D01*
X152738333Y-81904761D01*
X152833571Y-81952380D01*
X153024047Y-81952380D01*
X153119285Y-81904761D01*
X153166904Y-81857142D01*
X153214523Y-81761904D01*
X153214523Y-81571428D01*
X153166904Y-81476190D01*
X153119285Y-81428571D01*
X153024047Y-81380952D01*
%TO.C,RN7*%
X151309523Y-90952380D02*
X150976190Y-90476190D01*
X150738095Y-90952380D02*
X150738095Y-89952380D01*
X151119047Y-89952380D01*
X151214285Y-90000000D01*
X151261904Y-90047619D01*
X151309523Y-90142857D01*
X151309523Y-90285714D01*
X151261904Y-90380952D01*
X151214285Y-90428571D01*
X151119047Y-90476190D01*
X150738095Y-90476190D01*
X151738095Y-90952380D02*
X151738095Y-89952380D01*
X152309523Y-90952380D01*
X152309523Y-89952380D01*
X152690476Y-89952380D02*
X153357142Y-89952380D01*
X152928571Y-90952380D01*
%TO.C,RN6*%
X147404523Y-96007380D02*
X147071190Y-95531190D01*
X146833095Y-96007380D02*
X146833095Y-95007380D01*
X147214047Y-95007380D01*
X147309285Y-95055000D01*
X147356904Y-95102619D01*
X147404523Y-95197857D01*
X147404523Y-95340714D01*
X147356904Y-95435952D01*
X147309285Y-95483571D01*
X147214047Y-95531190D01*
X146833095Y-95531190D01*
X147833095Y-96007380D02*
X147833095Y-95007380D01*
X148404523Y-96007380D01*
X148404523Y-95007380D01*
X149309285Y-95007380D02*
X149118809Y-95007380D01*
X149023571Y-95055000D01*
X148975952Y-95102619D01*
X148880714Y-95245476D01*
X148833095Y-95435952D01*
X148833095Y-95816904D01*
X148880714Y-95912142D01*
X148928333Y-95959761D01*
X149023571Y-96007380D01*
X149214047Y-96007380D01*
X149309285Y-95959761D01*
X149356904Y-95912142D01*
X149404523Y-95816904D01*
X149404523Y-95578809D01*
X149356904Y-95483571D01*
X149309285Y-95435952D01*
X149214047Y-95388333D01*
X149023571Y-95388333D01*
X148928333Y-95435952D01*
X148880714Y-95483571D01*
X148833095Y-95578809D01*
%TO.C,RN5*%
X147404523Y-87117380D02*
X147071190Y-86641190D01*
X146833095Y-87117380D02*
X146833095Y-86117380D01*
X147214047Y-86117380D01*
X147309285Y-86165000D01*
X147356904Y-86212619D01*
X147404523Y-86307857D01*
X147404523Y-86450714D01*
X147356904Y-86545952D01*
X147309285Y-86593571D01*
X147214047Y-86641190D01*
X146833095Y-86641190D01*
X147833095Y-87117380D02*
X147833095Y-86117380D01*
X148404523Y-87117380D01*
X148404523Y-86117380D01*
X149356904Y-86117380D02*
X148880714Y-86117380D01*
X148833095Y-86593571D01*
X148880714Y-86545952D01*
X148975952Y-86498333D01*
X149214047Y-86498333D01*
X149309285Y-86545952D01*
X149356904Y-86593571D01*
X149404523Y-86688809D01*
X149404523Y-86926904D01*
X149356904Y-87022142D01*
X149309285Y-87069761D01*
X149214047Y-87117380D01*
X148975952Y-87117380D01*
X148880714Y-87069761D01*
X148833095Y-87022142D01*
%TO.C,RN3*%
X156167380Y-99102976D02*
X155691190Y-99436309D01*
X156167380Y-99674404D02*
X155167380Y-99674404D01*
X155167380Y-99293452D01*
X155215000Y-99198214D01*
X155262619Y-99150595D01*
X155357857Y-99102976D01*
X155500714Y-99102976D01*
X155595952Y-99150595D01*
X155643571Y-99198214D01*
X155691190Y-99293452D01*
X155691190Y-99674404D01*
X156167380Y-98674404D02*
X155167380Y-98674404D01*
X156167380Y-98102976D01*
X155167380Y-98102976D01*
X155167380Y-97722023D02*
X155167380Y-97102976D01*
X155548333Y-97436309D01*
X155548333Y-97293452D01*
X155595952Y-97198214D01*
X155643571Y-97150595D01*
X155738809Y-97102976D01*
X155976904Y-97102976D01*
X156072142Y-97150595D01*
X156119761Y-97198214D01*
X156167380Y-97293452D01*
X156167380Y-97579166D01*
X156119761Y-97674404D01*
X156072142Y-97722023D01*
%TO.C,RN1*%
X137117380Y-99102976D02*
X136641190Y-99436309D01*
X137117380Y-99674404D02*
X136117380Y-99674404D01*
X136117380Y-99293452D01*
X136165000Y-99198214D01*
X136212619Y-99150595D01*
X136307857Y-99102976D01*
X136450714Y-99102976D01*
X136545952Y-99150595D01*
X136593571Y-99198214D01*
X136641190Y-99293452D01*
X136641190Y-99674404D01*
X137117380Y-98674404D02*
X136117380Y-98674404D01*
X137117380Y-98102976D01*
X136117380Y-98102976D01*
X137117380Y-97102976D02*
X137117380Y-97674404D01*
X137117380Y-97388690D02*
X136117380Y-97388690D01*
X136260238Y-97483928D01*
X136355476Y-97579166D01*
X136403095Y-97674404D01*
%TO.C,R3*%
X153309880Y-76036666D02*
X152833690Y-76370000D01*
X153309880Y-76608095D02*
X152309880Y-76608095D01*
X152309880Y-76227142D01*
X152357500Y-76131904D01*
X152405119Y-76084285D01*
X152500357Y-76036666D01*
X152643214Y-76036666D01*
X152738452Y-76084285D01*
X152786071Y-76131904D01*
X152833690Y-76227142D01*
X152833690Y-76608095D01*
X152309880Y-75703333D02*
X152309880Y-75084285D01*
X152690833Y-75417619D01*
X152690833Y-75274761D01*
X152738452Y-75179523D01*
X152786071Y-75131904D01*
X152881309Y-75084285D01*
X153119404Y-75084285D01*
X153214642Y-75131904D01*
X153262261Y-75179523D01*
X153309880Y-75274761D01*
X153309880Y-75560476D01*
X153262261Y-75655714D01*
X153214642Y-75703333D01*
%TO.C,R2*%
X159358333Y-77909880D02*
X159025000Y-77433690D01*
X158786904Y-77909880D02*
X158786904Y-76909880D01*
X159167857Y-76909880D01*
X159263095Y-76957500D01*
X159310714Y-77005119D01*
X159358333Y-77100357D01*
X159358333Y-77243214D01*
X159310714Y-77338452D01*
X159263095Y-77386071D01*
X159167857Y-77433690D01*
X158786904Y-77433690D01*
X159739285Y-77005119D02*
X159786904Y-76957500D01*
X159882142Y-76909880D01*
X160120238Y-76909880D01*
X160215476Y-76957500D01*
X160263095Y-77005119D01*
X160310714Y-77100357D01*
X160310714Y-77195595D01*
X160263095Y-77338452D01*
X159691666Y-77909880D01*
X160310714Y-77909880D01*
%TO.C,R1*%
X155214880Y-76036666D02*
X154738690Y-76370000D01*
X155214880Y-76608095D02*
X154214880Y-76608095D01*
X154214880Y-76227142D01*
X154262500Y-76131904D01*
X154310119Y-76084285D01*
X154405357Y-76036666D01*
X154548214Y-76036666D01*
X154643452Y-76084285D01*
X154691071Y-76131904D01*
X154738690Y-76227142D01*
X154738690Y-76608095D01*
X155214880Y-75084285D02*
X155214880Y-75655714D01*
X155214880Y-75370000D02*
X154214880Y-75370000D01*
X154357738Y-75465238D01*
X154452976Y-75560476D01*
X154500595Y-75655714D01*
%TO.C,J6*%
X138236666Y-75639880D02*
X138236666Y-76354166D01*
X138189047Y-76497023D01*
X138093809Y-76592261D01*
X137950952Y-76639880D01*
X137855714Y-76639880D01*
X139141428Y-75639880D02*
X138950952Y-75639880D01*
X138855714Y-75687500D01*
X138808095Y-75735119D01*
X138712857Y-75877976D01*
X138665238Y-76068452D01*
X138665238Y-76449404D01*
X138712857Y-76544642D01*
X138760476Y-76592261D01*
X138855714Y-76639880D01*
X139046190Y-76639880D01*
X139141428Y-76592261D01*
X139189047Y-76544642D01*
X139236666Y-76449404D01*
X139236666Y-76211309D01*
X139189047Y-76116071D01*
X139141428Y-76068452D01*
X139046190Y-76020833D01*
X138855714Y-76020833D01*
X138760476Y-76068452D01*
X138712857Y-76116071D01*
X138665238Y-76211309D01*
%TO.C,J4*%
X171166666Y-96952380D02*
X171166666Y-97666666D01*
X171119047Y-97809523D01*
X171023809Y-97904761D01*
X170880952Y-97952380D01*
X170785714Y-97952380D01*
X172071428Y-97285714D02*
X172071428Y-97952380D01*
X171833333Y-96904761D02*
X171595238Y-97619047D01*
X172214285Y-97619047D01*
%TO.C,J3*%
X128166666Y-78902380D02*
X128166666Y-79616666D01*
X128119047Y-79759523D01*
X128023809Y-79854761D01*
X127880952Y-79902380D01*
X127785714Y-79902380D01*
X128547619Y-78902380D02*
X129166666Y-78902380D01*
X128833333Y-79283333D01*
X128976190Y-79283333D01*
X129071428Y-79330952D01*
X129119047Y-79378571D01*
X129166666Y-79473809D01*
X129166666Y-79711904D01*
X129119047Y-79807142D01*
X129071428Y-79854761D01*
X128976190Y-79902380D01*
X128690476Y-79902380D01*
X128595238Y-79854761D01*
X128547619Y-79807142D01*
%TO.C,J2*%
X151952380Y-118333333D02*
X152666666Y-118333333D01*
X152809523Y-118380952D01*
X152904761Y-118476190D01*
X152952380Y-118619047D01*
X152952380Y-118714285D01*
X152047619Y-117904761D02*
X152000000Y-117857142D01*
X151952380Y-117761904D01*
X151952380Y-117523809D01*
X152000000Y-117428571D01*
X152047619Y-117380952D01*
X152142857Y-117333333D01*
X152238095Y-117333333D01*
X152380952Y-117380952D01*
X152952380Y-117952380D01*
X152952380Y-117333333D01*
%TO.C,J1*%
X128952380Y-118333333D02*
X129666666Y-118333333D01*
X129809523Y-118380952D01*
X129904761Y-118476190D01*
X129952380Y-118619047D01*
X129952380Y-118714285D01*
X129952380Y-117333333D02*
X129952380Y-117904761D01*
X129952380Y-117619047D02*
X128952380Y-117619047D01*
X129095238Y-117714285D01*
X129190476Y-117809523D01*
X129238095Y-117904761D01*
%TO.C,D9*%
X161961904Y-77909880D02*
X161961904Y-76909880D01*
X162200000Y-76909880D01*
X162342857Y-76957500D01*
X162438095Y-77052738D01*
X162485714Y-77147976D01*
X162533333Y-77338452D01*
X162533333Y-77481309D01*
X162485714Y-77671785D01*
X162438095Y-77767023D01*
X162342857Y-77862261D01*
X162200000Y-77909880D01*
X161961904Y-77909880D01*
X163009523Y-77909880D02*
X163200000Y-77909880D01*
X163295238Y-77862261D01*
X163342857Y-77814642D01*
X163438095Y-77671785D01*
X163485714Y-77481309D01*
X163485714Y-77100357D01*
X163438095Y-77005119D01*
X163390476Y-76957500D01*
X163295238Y-76909880D01*
X163104761Y-76909880D01*
X163009523Y-76957500D01*
X162961904Y-77005119D01*
X162914285Y-77100357D01*
X162914285Y-77338452D01*
X162961904Y-77433690D01*
X163009523Y-77481309D01*
X163104761Y-77528928D01*
X163295238Y-77528928D01*
X163390476Y-77481309D01*
X163438095Y-77433690D01*
X163485714Y-77338452D01*
%TO.C,C2*%
X157024642Y-76036666D02*
X157072261Y-76084285D01*
X157119880Y-76227142D01*
X157119880Y-76322380D01*
X157072261Y-76465238D01*
X156977023Y-76560476D01*
X156881785Y-76608095D01*
X156691309Y-76655714D01*
X156548452Y-76655714D01*
X156357976Y-76608095D01*
X156262738Y-76560476D01*
X156167500Y-76465238D01*
X156119880Y-76322380D01*
X156119880Y-76227142D01*
X156167500Y-76084285D01*
X156215119Y-76036666D01*
X156215119Y-75655714D02*
X156167500Y-75608095D01*
X156119880Y-75512857D01*
X156119880Y-75274761D01*
X156167500Y-75179523D01*
X156215119Y-75131904D01*
X156310357Y-75084285D01*
X156405595Y-75084285D01*
X156548452Y-75131904D01*
X157119880Y-75703333D01*
X157119880Y-75084285D01*
%TO.C,C1*%
X151309642Y-76036666D02*
X151357261Y-76084285D01*
X151404880Y-76227142D01*
X151404880Y-76322380D01*
X151357261Y-76465238D01*
X151262023Y-76560476D01*
X151166785Y-76608095D01*
X150976309Y-76655714D01*
X150833452Y-76655714D01*
X150642976Y-76608095D01*
X150547738Y-76560476D01*
X150452500Y-76465238D01*
X150404880Y-76322380D01*
X150404880Y-76227142D01*
X150452500Y-76084285D01*
X150500119Y-76036666D01*
X151404880Y-75084285D02*
X151404880Y-75655714D01*
X151404880Y-75370000D02*
X150404880Y-75370000D01*
X150547738Y-75465238D01*
X150642976Y-75560476D01*
X150690595Y-75655714D01*
%TD*%
M02*
