M48
; DRILL file {KiCad (5.1.9-0-10_14)} date Sunday, January 17, 2021 at 02:25:07 PM
; FORMAT={-:-/ absolute / inch / decimal}
; #@! TF.CreationDate,2021-01-17T14:25:07+01:00
; #@! TF.GenerationSoftware,Kicad,Pcbnew,(5.1.9-0-10_14)
FMAT,2
INCH
T1C0.0118
T2C0.0394
T3C0.0390
T4C0.0400
T5C0.0454
T6C0.1260
%
G90
G05
T1
X5.4055Y-3.887
X5.4555Y-3.1495
X5.4555Y-3.8745
X5.4805Y-4.0288
X5.493Y-3.8745
X5.5055Y-2.987
X5.5305Y-3.8745
X5.5555Y-4.0995
X5.568Y-3.8745
X5.5805Y-4.1245
X5.5833Y-3.6148
X5.6055Y-3.587
X5.6055Y-3.8745
X5.6305Y-4.0288
X5.643Y-3.8745
X5.6555Y-3.012
X5.6762Y-3.5121
X5.6762Y-3.6619
X5.6805Y-3.8745
X5.7055Y-2.962
X5.7055Y-3.3495
X5.8305Y-3.4495
X5.8305Y-3.487
X5.8305Y-3.5245
X5.8305Y-3.562
X5.8305Y-3.6031
X5.8305Y-3.637
X5.8305Y-3.6745
X5.8305Y-3.712
X5.8555Y-3.012
X5.943Y-3.012
X5.9773Y-3.3278
X5.9805Y-3.2495
X5.9805Y-3.287
X5.9805Y-3.362
X5.9805Y-3.4031
X5.9805Y-3.437
X5.9805Y-3.4745
X5.9805Y-3.512
X6.1348Y-3.462
X6.135Y-3.312
X6.168Y-3.162
X6.1805Y-3.8745
X6.2047Y-2.5276
X6.2055Y-3.387
X6.218Y-3.8745
X6.2305Y-3.362
X6.2305Y-4.0288
X6.2362Y-2.4646
X6.2362Y-2.4961
X6.2362Y-2.5276
X6.2555Y-3.8745
X6.293Y-3.8745
X6.293Y-4.0245
X6.3305Y-3.8745
X6.3305Y-4.087
X6.368Y-3.8745
X6.3804Y-4.0289
X6.4055Y-3.8745
X6.4555Y-3.885
X6.4805Y-3.112
T2
X5.2055Y-4.185
X5.2055Y-4.285
X5.3055Y-4.185
X5.3055Y-4.285
X5.4055Y-4.185
X5.4055Y-4.285
X5.4197Y-3.237
X5.4197Y-3.337
X5.4197Y-3.437
X5.4197Y-3.537
X5.4197Y-3.637
X5.4197Y-3.737
X5.5055Y-4.185
X5.5055Y-4.285
X5.5197Y-3.237
X5.5197Y-3.337
X5.5197Y-3.437
X5.5197Y-3.537
X5.5197Y-3.637
X5.5197Y-3.737
X5.6055Y-4.185
X5.6055Y-4.285
X5.7055Y-4.185
X5.7055Y-4.285
X6.1055Y-4.185
X6.1055Y-4.285
X6.2055Y-4.185
X6.2055Y-4.285
X6.2913Y-3.237
X6.2913Y-3.337
X6.2913Y-3.437
X6.2913Y-3.537
X6.2913Y-3.637
X6.2913Y-3.737
X6.3055Y-4.185
X6.3055Y-4.285
X6.3913Y-3.237
X6.3913Y-3.337
X6.3913Y-3.437
X6.3913Y-3.537
X6.3913Y-3.637
X6.3913Y-3.737
X6.4055Y-4.185
X6.4055Y-4.285
X6.5055Y-4.185
X6.5055Y-4.285
X6.6055Y-4.185
X6.6055Y-4.285
T3
X5.3555Y-3.0745
X5.5555Y-3.0345
X5.5555Y-3.1145
T4
X5.5417Y-2.6787
X6.2693Y-2.6787
T5
X5.1969Y-4.6063
X5.9055Y-2.3819
X6.6142Y-4.6063
T6
X5.2165Y-2.9921
X5.2165Y-3.9764
X5.2362Y-2.5984
X6.5748Y-2.5984
X6.5945Y-2.9921
X6.5945Y-3.9764
T0
M30
