%TF.GenerationSoftware,KiCad,Pcbnew,(5.1.9-0-10_14)*%
%TF.CreationDate,2021-01-17T14:25:06+01:00*%
%TF.ProjectId,SYZYGY-PMOD4,53595a59-4759-42d5-904d-4f44342e6b69,rev?*%
%TF.SameCoordinates,Original*%
%TF.FileFunction,Paste,Bot*%
%TF.FilePolarity,Positive*%
%FSLAX46Y46*%
G04 Gerber Fmt 4.6, Leading zero omitted, Abs format (unit mm)*
G04 Created by KiCad (PCBNEW (5.1.9-0-10_14)) date 2021-01-17 14:25:06*
%MOMM*%
%LPD*%
G01*
G04 APERTURE LIST*
%ADD10R,0.460000X1.450000*%
%ADD11R,2.540000X0.640000*%
%ADD12R,4.700000X0.640000*%
G04 APERTURE END LIST*
D10*
%TO.C,J5*%
X142400000Y-69090000D03*
X142400000Y-62910000D03*
X143200000Y-69090000D03*
X143200000Y-62910000D03*
X144000000Y-69090000D03*
X144000000Y-62910000D03*
X144800000Y-69090000D03*
X144800000Y-62910000D03*
X145600000Y-69090000D03*
X145600000Y-62910000D03*
X146400000Y-69090000D03*
X146400000Y-62910000D03*
X147200000Y-69090000D03*
X147200000Y-62910000D03*
X148000000Y-69090000D03*
X148000000Y-62910000D03*
X148800000Y-69090000D03*
X148800000Y-62910000D03*
X149600000Y-69090000D03*
X149600000Y-62910000D03*
X150400000Y-69090000D03*
X150400000Y-62910000D03*
X151200000Y-69090000D03*
X151200000Y-62910000D03*
X152000000Y-69090000D03*
X152000000Y-62910000D03*
X152800000Y-69090000D03*
X152800000Y-62910000D03*
X153600000Y-69090000D03*
X153600000Y-62910000D03*
X154400000Y-69090000D03*
X154400000Y-62910000D03*
X155200000Y-69090000D03*
X155200000Y-62910000D03*
X156000000Y-69090000D03*
X156000000Y-62910000D03*
X156800000Y-69090000D03*
X156800000Y-62910000D03*
X157600000Y-69090000D03*
X157600000Y-62910000D03*
D11*
X141555000Y-66000000D03*
D12*
X146825000Y-66000000D03*
X153175000Y-66000000D03*
D11*
X158445000Y-66000000D03*
%TD*%
M02*
